<svg width="12" height="20" fill="none" xmlns="http://www.w3.org/2000/svg"><path d="M10.9995.00416 8.40594 0C5.49217 0 3.60917 1.9319 3.60917 4.92203v2.26938h-2.6077c-.22534 0-.40781.18268-.40781.40802v3.28807c0 .2253.18268.4078.40781.4078h2.6077v8.2969c0 .2253.18247.4078.40781.4078h3.40231c.22533 0 .40781-.1827.40781-.4078v-8.2969h3.049c.2253 0 .4078-.1825.4078-.4078l.0013-3.28807a.40832.40832 0 0 0-.1195-.28838c-.0763-.07657-.1804-.11964-.2886-.11964h-3.05V5.26763c0-.92465.22034-1.39405 1.42484-1.39405l1.74716-.00063c.2251 0 .4076-.18268.4076-.40781V.41197c0-.22492-.1823-.4074-.4072-.4078Z" fill="#fff"/></svg>