<svg width="132" height="26" fill="none" xmlns="http://www.w3.org/2000/svg"><path d="M.40625 25V.39062h3.05859V11.1133h3.16407v2.9883H3.46484V25H.40625Zm7.98047-10.8984v-2.9883h3.12888V.39062h3.0938V25h-3.0938V14.1016H8.38672Zm8.96488 5.6953v-8.6836c0-1.1016.4922-2.17971 1.4765-3.23439 1.2188-1.26563 2.7422-1.89844 4.5703-1.89844v2.84765c-1.3828 0-2.3437.57422-2.8828 1.72268-.164.3515-.2461.7031-.2461 1.0547v7.7343c0 .8672.3985 1.6055 1.1953 2.2149.5625.4219 1.2071.6328 1.9336.6328v2.8477c-2.2265 0-3.9492-.9024-5.1679-2.7071-.586-.8906-.8789-1.7343-.8789-2.5312Zm7.5586 5.2383v-2.8477c1.2421 0 2.1328-.5625 2.6718-1.6875.1875-.375.2813-.7383.2813-1.0898v-7.8047c0-.961-.4102-1.72269-1.2305-2.28519-.5156-.32812-1.1016-.49219-1.7578-.49219V5.98047c2.1562 0 3.8203.87891 4.9922 2.63672.5859.86719.8789 1.69921.8789 2.49611v8.6836c0 1.1484-.4922 2.2617-1.4766 3.3398-1.1484 1.2422-2.6015 1.875-4.3593 1.8985Zm8.5078-5.0977V6.01562h2.9882V19.5859c0 .8438.4219 1.5469 1.2657 2.1094.5625.3516 1.1836.5274 1.8633.5274v2.9531c-2.25 0-3.9844-.8789-5.2032-2.6367-.6093-.8907-.914-1.7579-.914-2.6016Zm7.664 5.2383v-2.9531c1.2657 0 2.1914-.5039 2.7774-1.5118.2109-.375.3164-.75.3164-1.125V6.01562h2.9883V19.9375c0 1.1016-.5039 2.1914-1.5118 3.2695-1.2187 1.2891-2.7421 1.9453-4.5703 1.9688Zm8.1211-5.168 2.7774-.5273c0 1.0547.5507 1.8867 1.6523 2.4961.5391.2578 1.0547.3984 1.5469.4218v2.7774c-2.2735 0-3.9727-.8203-5.0977-2.461-.5859-.8671-.8789-1.7695-.8789-2.707Zm.1758-8.6484c0-2.13284.9727-3.71487 2.918-4.74612.9375-.49219 1.875-.73828 2.8125-.73828v2.74219c-1.0782 0-1.9102.44531-2.4961 1.33593-.3047.44528-.4571.91408-.4571 1.40628 0 .75.586 1.3594 1.7579 1.8281.8906.375 2.6132.8672 5.1679 1.4766 1.5938.3281 2.7305 1.1132 3.4102 2.3554.3516.6563.5273 1.3946.5273 2.2149 0 2.25-.9023 3.914-2.707 4.9922-1.0547.6328-2.2617.9492-3.6211.9492v-2.7774c1.0781 0 1.9805-.375 2.707-1.125.5157-.539.7735-1.1718.7735-1.8984 0-.9375-.9258-1.6875-2.7774-2.25-.4687-.1406-1.2187-.3398-2.25-.5977-1.1015-.2578-1.8984-.4687-2.3906-.6328-1.7812-.7031-2.8594-1.7695-3.2344-3.1992-.0937-.4219-.1406-.8672-.1406-1.3359Zm7.2773-2.70706V5.875c2.0157 0 3.6446.75 4.8868 2.25.7734.96094 1.1601 1.9688 1.1601 3.0234l-2.7773.4571c0-1.2891-.7031-2.19144-2.1094-2.70706-.4219-.16406-.8086-.2461-1.1602-.2461Zm8.4376 11.14456v-8.7188c.0234-1.0781.539-2.14451 1.5468-3.19919 1.2188-1.24219 2.6953-1.875 4.4297-1.89844v2.77734c-1.125 0-2.0039.49219-2.6367 1.47659-.2578.4218-.3867.8086-.3867 1.1601v2.3907h7.875v-2.3907c0-1.0547-.5391-1.82809-1.6172-2.32028-.4922-.23438-.9961-.35156-1.5117-.35156V5.98047c1.6172 0 3.0586.57422 4.3242 1.72265 1.0547 1.00782 1.5937 2.1211 1.6172 3.33988v5.5898H68.0469v3.1641c0 .6562.375 1.2656 1.125 1.8281.6093.4219 1.2539.6328 1.9336.6328V25c-2.1328 0-3.8086-.8672-5.0274-2.6016-.6562-.914-.9843-1.7812-.9843-2.6015ZM72.793 25v-2.7773c1.4062 0 2.4609-.6094 3.164-1.8282.1407-.2578.2461-.5039.3164-.7383l2.4961.9141c-.4218 1.6172-1.3828 2.8359-2.8828 3.6563-.9609.5156-1.9922.7734-3.0937.7734ZM80.4922.39062h3.0937l6.2579 21.37498L88.7188 25h-1.0899L80.4922.39062Zm8.5781 13.04298L93.4297.39062h3.0937c-.2109.67969-1.0898 3.39844-2.6367 8.15626-1.8047 5.53122-2.8359 8.70702-3.0937 9.52732h-.3516l-1.3711-4.6406Zm9.1406 4.7109V6.57812c0-1.24218.5274-2.50781 1.5821-3.79687 1.406-1.6875 3.187-2.54297 5.344-2.5664v3.05859c-1.43 0-2.543.72656-3.34 2.17968-.328.63282-.492 1.19532-.492 1.6875V18.1445c0 1.4766.726 2.625 2.179 3.4453.61.3516 1.149.5274 1.618.5274v3.0586c-1.336 0-2.672-.4805-4.008-1.4414-1.8987-1.4063-2.8596-3.2696-2.8831-5.5899Zm8.8241 7.0313v-3.0586c.82 0 1.653-.3633 2.496-1.0899.891-.7968 1.348-1.7578 1.371-2.8828V7.14062c0-.91406-.375-1.79296-1.125-2.63671-.773-.79688-1.687-1.20704-2.742-1.23047V.21484c2.367 0 4.266 1.01954 5.695 3.0586.821 1.17187 1.231 2.27344 1.231 3.30468V18.1445c0 2.6016-1.16 4.5938-3.481 5.9766-1.218.7031-2.367 1.0547-3.445 1.0547ZM116.809 25h3.058V.39062h-3.058V25Zm4.816-11.0039h3.797c3.07-.0234 4.992-1.1953 5.766-3.5156.304-.93753.457-2.05081.457-3.33988 0-4.28906-1.934-6.53906-5.801-6.75h-4.219v2.95313h3.305c2.367.04688 3.562 1.3125 3.586 3.79687-.047 2.55469-1.231 3.84378-3.551 3.86718h-3.34v2.9883Z" fill="#fff"/></svg>