<svg width="36" height="20" fill="none" xmlns="http://www.w3.org/2000/svg"><path d="M34.8684 18.0622c-.0425-.0915-.082-.1674-.1188-.2282-.6082-1.0953-1.7704-2.4398-3.486-4.0338l-.0363-.0365-.0181-.0179-.0184-.0183h-.0184c-.7786-.7423-1.2716-1.2414-1.4781-1.4969-.3778-.4867-.4625-.9794-.256-1.4786.1459-.3771.6939-1.17365 1.6427-2.3906.499-.64495.8943-1.16185 1.1862-1.55129 2.1051-2.79867 3.0178-4.58705 2.7378-5.36586l-.1088-.182c-.073-.10956-.2616-.2098-.5655-.30122-.3045-.09122-.6937-.1063-1.1684-.0455l-5.2562.0363c-.0852-.03017-.2068-.02736-.3652.0092-.1582.03657-.2373.05492-.2373.05492l-.0915.0457-.0726.05492c-.0609.03631-.1278.10017-.2009.19146-.0727.09096-.1334.19772-.182.31937-.5723 1.47227-1.2229 2.84111-1.9532 4.10646-.4502.75452-.8637 1.40841-1.2413 1.96207-.3771.55347-.6934.96125-.9488 1.22265-.2557.26164-.4864.47126-.6937.6296-.2069.15841-.3649.22534-.4742.20086a13.4146 13.4146 0 0 1-.3107-.07307c-.1702-.10957-.3071-.25858-.4104-.44716-.1036-.18858-.1735-.42594-.21-.71188-.0363-.28613-.0577-.53224-.0639-.73917-.0057-.20667-.003-.49901.0093-.87617.0126-.37735.0183-.63267.0183-.76653 0-.46244.0091-.96432.0271-1.50577.0185-.54145.0333-.97046.0458-1.28651.0124-.31637.0182-.65108.0182-1.00395 0-.35287-.0215-.62961-.064-.83046-.0419-.2006-.1063-.39532-.1911-.5841-.0853-.18857-.2102-.33445-.3742-.43801-.1642-.10343-.3684-.18551-.6113-.2465-.645-.14594-1.4662-.22489-2.4642-.23716-2.263-.0243-3.7171.12184-4.362.4382-.2555.13368-.4868.31631-.6935.54734-.2191.26778-.2496.41392-.0915.43796.7302.10937 1.2471.37102 1.5513.78468l.1097.21921c.0852.15815.1704.43814.2556.8396.0851.40145.14.84554.1642 1.33202.0607.88837.0607 1.64883 0 2.28144-.061.63287-.1185 1.12554-.1734 1.47841-.0549.35287-.137.63881-.2464.85776-.1097.21901-.1826.35287-.2192.40145-.0365.04859-.0669.07921-.0911.09122-.1581.06061-.3226.09148-.4928.09148-.1705 0-.3773-.08527-.6206-.2557-.2432-.17043-.4957-.40452-.7573-.70267-.2617-.29822-.5567-.71495-.8854-1.25026-.32836-.53532-.66908-1.16799-1.02195-1.89802L8.998 5.16729c-.18251-.3406-.43182-.83654-.74819-1.48736-.31656-.65109-.59636-1.28089-.8396-1.88927-.09723-.25551-.2433-.45003-.43796-.58389l-.09135-.05492c-.06073-.04858-.15821-.10017-.29195-.15514-.13392-.05492-.27366-.0943-.4198-.11852l-5.00084.0363c-.51103 0-.85776.11578-1.04033.347l-.07307.10937C.01841 1.43178 0 1.52908 0 1.663c0 .13386.0365.29815.10957.49268.73003 1.71577 1.52392 3.37049 2.38168 4.96441.85776 1.59393 1.60313 2.87787 2.23568 3.85071.63267.9735 1.27755 1.8923 1.93464 2.756.6571.8639 1.09205 1.4176 1.30486 1.6608.21306.2437.38042.4259.50207.5475l.45637.438c.29201.2921.72082.6419 1.28663 1.0494.5659.4078 1.1925.8092 1.8799 1.205.6876.3951 1.4875.7176 2.4002.9669.9125.2497 1.8007.3498 2.6647.3015h2.0989c.4257-.0368.7482-.1706.9674-.4016l.0726-.0915c.0488-.0726.0946-.1855.1367-.3373.0428-.1521.064-.3196.064-.5019-.0125-.5231.0273-.9945.1184-1.4143.0909-.4196.1946-.7359.3106-.949.1159-.2129.2467-.3925.3922-.5381.1459-.146.2498-.2344.3108-.2648.0606-.0306.109-.0514.1455-.0639.292-.0973.6357-.003 1.0315.2832.3955.2859.7665.639 1.1135 1.0586.3468.42.7635.8912 1.2501 1.4143.4869.5233.9126.9122 1.2775 1.1681l.3649.219c.2437.1462.5601.28.9495.4017.3887.1216.7293.152 1.0218.0912l4.6721-.0729c.4621 0 .8217-.0765 1.0768-.2283.2556-.1521.4074-.3196.4564-.5019.0488-.1824.0514-.3894.0092-.6208-.0433-.2309-.0859-.3923-.1283-.4835Z" fill="#fff"/></svg>